<?xml version="1.0" encoding="UTF-8" standalone="no"?>
<!-- Created with Inkscape (http://www.inkscape.org/) -->
<!-- https://en.wikipedia.org/wiki/File:Baybayin_Pa.svg -->
<!-- GFDL https://commons.wikimedia.org/wiki/User:Cronholm144 -->
<svg
   xmlns:dc="http://purl.org/dc/elements/1.1/"
   xmlns:cc="http://web.resource.org/cc/"
   xmlns:rdf="http://www.w3.org/1999/02/22-rdf-syntax-ns#"
   xmlns:svg="http://www.w3.org/2000/svg"
   xmlns="http://www.w3.org/2000/svg"
   xmlns:sodipodi="http://sodipodi.sourceforge.net/DTD/sodipodi-0.dtd"
   xmlns:inkscape="http://www.inkscape.org/namespaces/inkscape"
   id="svg2"
   sodipodi:version="0.32"
   inkscape:version="0.45.1"
   width="35"
   height="32"
   version="1.0"
   sodipodi:docbase="C:\Users\Trenton Cronholm\Desktop"
   sodipodi:docname="Baybayin_La.svg"
   inkscape:output_extension="org.inkscape.output.svg.inkscape">
  <metadata
     id="metadata7">
    <rdf:RDF>
      <cc:Work
         rdf:about="">
        <dc:format>image/svg+xml</dc:format>
        <dc:type
           rdf:resource="http://purl.org/dc/dcmitype/StillImage" />
      </cc:Work>
    </rdf:RDF>
  </metadata>
  <defs
     id="defs5" />
  <sodipodi:namedview
     inkscape:window-height="718"
     inkscape:window-width="1024"
     inkscape:pageshadow="2"
     inkscape:pageopacity="0.0"
     guidetolerance="10.0"
     gridtolerance="10.0"
     objecttolerance="10.0"
     borderopacity="1.0"
     bordercolor="#666666"
     pagecolor="#ffffff"
     id="base"
     inkscape:zoom="14.260184"
     inkscape:cx="0.00076302539"
     inkscape:cy="15.938462"
     inkscape:window-x="-8"
     inkscape:window-y="-8"
     inkscape:current-layer="svg2" />
  <path
     style="fill:#000000;fill-rule:evenodd;stroke:none;stroke-width:1px;stroke-linecap:butt;stroke-linejoin:miter;stroke-opacity:1;fill-opacity:1"
     d="M 29.107692,9.2307692 C 29.107692,9.2307692 32.830801,8.8911581 32.923077,5.6 C 33.015385,2.3076924 28.962432,2.1713787 27.885509,2.7406094 C 22.685509,5.2790709 14.038425,9.5294428 7.7967804,12.553846 C 6.7276975,12.969879 4.676923,11.184616 4.7384615,9.4153849 C 4.8636764,6.0462269 11.876923,4.4923077 11.876923,4.4923077 C 11.876923,4.4923077 7.97187,3.6007926 5.6357779,4.6840795 C 3.3271622,5.7546251 2.5316639,7.4465122 2.4872991,9.7760283 C 2.4429343,12.17567 5.8382217,15.25755 7.9112705,14.734884 C 12.018962,13.550269 23.77424,7.1280856 28.712701,4.589624 C 29.651162,4.0819317 30.538461,4.9846154 30.584615,6.0923077 C 30.630769,7.2 29.107692,9.2307692 29.107692,9.2307692 z "
     id="path2161"
     sodipodi:nodetypes="czcccczzcczc" />
  <path
     style="fill:#000000;fill-rule:evenodd;stroke:none;stroke-width:1px;stroke-linecap:butt;stroke-linejoin:miter;stroke-opacity:1;fill-opacity:1"
     d="M 8.7384615,29.046154 C 8.7384615,29.046154 9.9434693,27.61535 9.9076923,26.153846 C 9.8719144,24.692308 8.1402507,23.891949 8.1044728,22.849373 C 8.0662912,21.736752 9.2035782,20.931663 9.2035782,20.931663 C 9.2035782,20.931663 7.0822905,19.909481 7.1384615,18.794991 C 7.1981582,17.610548 10.834798,16.838456 11.11127,15.6322 C 11.37245,14.492666 10.707692,12.553846 10.707692,12.553846 L 12,12 C 12,12 13.823972,14.260107 13.581396,15.367441 C 13.324142,16.54178 9.8655396,18.252306 9.9076923,18.953846 C 9.949845,19.655386 13.904396,22.643353 13.090518,23.294456 C 12.06774,24.037895 11.044961,23.621922 10.022183,23.700894 C 10.022183,23.700894 12.603209,24.737276 12.615385,26.092308 C 12.62755,27.446154 8.7384615,29.046154 8.7384615,29.046154 z "
     id="path3134"
     sodipodi:nodetypes="czzczzcczzcczc" />
</svg>
