<?xml version="1.0" encoding="UTF-8" standalone="no"?>
<!-- Created with Inkscape (http://www.inkscape.org/) -->
<!-- https://en.wikipedia.org/wiki/File:Baybayin_Pa.svg -->
<!-- GFDL https://commons.wikimedia.org/wiki/User:Cronholm144 -->
<svg
   xmlns:dc="http://purl.org/dc/elements/1.1/"
   xmlns:cc="http://web.resource.org/cc/"
   xmlns:rdf="http://www.w3.org/1999/02/22-rdf-syntax-ns#"
   xmlns:svg="http://www.w3.org/2000/svg"
   xmlns="http://www.w3.org/2000/svg"
   xmlns:sodipodi="http://sodipodi.sourceforge.net/DTD/sodipodi-0.dtd"
   xmlns:inkscape="http://www.inkscape.org/namespaces/inkscape"
   id="svg2"
   sodipodi:version="0.32"
   inkscape:version="0.45.1"
   width="35"
   height="32"
   version="1.0"
   sodipodi:docbase="C:\Users\Trenton Cronholm\Desktop"
   sodipodi:docname="Baybayin_Ka.svg"
   inkscape:output_extension="org.inkscape.output.svg.inkscape">
  <metadata
     id="metadata7">
    <rdf:RDF>
      <cc:Work
         rdf:about="">
        <dc:format>image/svg+xml</dc:format>
        <dc:type
           rdf:resource="http://purl.org/dc/dcmitype/StillImage" />
      </cc:Work>
    </rdf:RDF>
  </metadata>
  <defs
     id="defs5" />
  <sodipodi:namedview
     inkscape:window-height="718"
     inkscape:window-width="1024"
     inkscape:pageshadow="2"
     inkscape:pageopacity="0.0"
     guidetolerance="10.0"
     gridtolerance="10.0"
     objecttolerance="10.0"
     borderopacity="1.0"
     bordercolor="#666666"
     pagecolor="#ffffff"
     id="base"
     inkscape:zoom="16.25"
     inkscape:cx="17.5"
     inkscape:cy="16.131596"
     inkscape:window-x="-8"
     inkscape:window-y="-8"
     inkscape:current-layer="svg2" />
  <path
     style="fill:#000000;fill-rule:evenodd;stroke:none;stroke-width:1px;stroke-linecap:butt;stroke-linejoin:miter;stroke-opacity:1;fill-opacity:1"
     d="M 8.8615385,8.2461538 C 4.1066118,7.9628711 2.451439,10.392151 2.4,12.984616 C 2.3485512,15.577571 3.8430681,16.568351 5.3538462,16.615385 C 6.8614589,16.66232 19.138462,11.220513 25.907693,8.4307692 C 31.155321,7.1775206 30.568463,12.322495 29.107692,14.953846 C 30.826884,14.662782 32.574629,12.307963 32.492307,10.646154 C 32.453697,6.4060189 27.624412,5.0637802 26.092307,5.9076923 L 6.7692308,14.153846 C 5.911891,14.346378 4.6691972,14.53451 4.7384615,12.738462 C 4.8078577,10.938994 6.7582762,9.555515 8.8615385,8.2461538 z "
     id="path2161"
     sodipodi:nodetypes="czzccccczc" />
  <path
     style="fill:#000000;fill-rule:evenodd;stroke:none;stroke-width:1px;stroke-linecap:butt;stroke-linejoin:miter;stroke-opacity:1;fill-opacity:1"
     d="M 27.261538,24.861538 C 27.261538,24.861538 29.014288,23.685987 29.846154,22.646154 C 30.707692,21.569231 31.123077,20.123077 30.646154,19.569231 C 30.194407,19.044622 30.123077,18.307692 26.030769,19.753846 C 21.938461,21.2 16.591685,23.836875 14.707693,24.615384 C 12.846154,25.384615 9.8727518,25.745724 9.046154,25.292308 C 8.1726586,24.813167 7.1538464,23.846155 7.2000001,21.600001 C 7.2461971,19.351741 8.8615382,16.969231 12.307692,16.984615 C 15.815384,16.999999 16,19.692308 16,19.692308 C 16,19.692308 13.138461,18.584616 11.446154,18.953846 C 9.765636,19.320504 7.9200651,23.200053 10.953846,23.261538 C 13.987627,23.323023 23.221478,17.609039 27.384616,16.984615 C 31.607929,16.351165 33.030592,18.335648 32.984615,20.553846 C 32.938638,22.710506 29.993585,25.045544 27.261538,24.861538 z "
     id="path3136"
     sodipodi:nodetypes="czzzzzzzczzzzc" />
  <path
     style="fill:none;fill-rule:evenodd;stroke:#000000;stroke-width:1.79999995;stroke-linecap:butt;stroke-linejoin:miter;stroke-miterlimit:4;stroke-dasharray:none;stroke-opacity:1"
     d="M 18.531927,11.368549 L 21.652689,19.708374"
     id="path3138" />
</svg>
