<?xml version="1.0" encoding="UTF-8" standalone="no"?>
<!-- Created with Inkscape (http://www.inkscape.org/) -->
<!-- https://en.wikipedia.org/wiki/File:Baybayin_Pa.svg -->
<!-- GFDL https://commons.wikimedia.org/wiki/User:Cronholm144 -->
<svg
   xmlns:dc="http://purl.org/dc/elements/1.1/"
   xmlns:cc="http://web.resource.org/cc/"
   xmlns:rdf="http://www.w3.org/1999/02/22-rdf-syntax-ns#"
   xmlns:svg="http://www.w3.org/2000/svg"
   xmlns="http://www.w3.org/2000/svg"
   xmlns:sodipodi="http://sodipodi.sourceforge.net/DTD/sodipodi-0.dtd"
   xmlns:inkscape="http://www.inkscape.org/namespaces/inkscape"
   id="svg2"
   sodipodi:version="0.32"
   inkscape:version="0.45.1"
   width="35"
   height="32"
   version="1.0"
   sodipodi:docbase="C:\Users\Trenton Cronholm\Desktop"
   sodipodi:docname="Baybayin_Pa.svg"
   inkscape:output_extension="org.inkscape.output.svg.inkscape">
  <metadata
     id="metadata7">
    <rdf:RDF>
      <cc:Work
         rdf:about="">
        <dc:format>image/svg+xml</dc:format>
        <dc:type
           rdf:resource="http://purl.org/dc/dcmitype/StillImage" />
      </cc:Work>
    </rdf:RDF>
  </metadata>
  <defs
     id="defs5" />
  <sodipodi:namedview
     inkscape:window-height="718"
     inkscape:window-width="1020"
     inkscape:pageshadow="2"
     inkscape:pageopacity="0.0"
     guidetolerance="10.0"
     gridtolerance="10.0"
     objecttolerance="10.0"
     borderopacity="1.0"
     bordercolor="#666666"
     pagecolor="#ffffff"
     id="base"
     inkscape:zoom="16.25"
     inkscape:cx="17.5"
     inkscape:cy="16"
     inkscape:window-x="0"
     inkscape:window-y="14"
     inkscape:current-layer="svg2" />
  <path
     style="fill:#000000;fill-rule:evenodd;stroke:none;stroke-width:1px;stroke-linecap:butt;stroke-linejoin:miter;stroke-opacity:1;fill-opacity:1"
     d="M 29.107692,19.938462 C 31.232231,19.441265 32.701139,18.069896 32.861538,14.953846 C 31.986398,10.351953 29.312768,9.0770527 27.076923,9.0461538 C 26.052105,9.1093378 24.953335,8.7857959 22.953846,10.092308 C 20.911037,11.427126 16.338929,16.338742 12.184615,18.953846 C 9.9696297,19.978689 8.3076388,19.897543 7.076923,18.953846 C 6.553266,18.25641 6.5742987,17.558975 6.5230769,16.861539 C 6.41373,13.928949 9.0097575,12.570926 9.723077,11.692308 C 9.0210119,10.38292 6.9277654,8.7197075 5.9076923,8.4307692 C 4.7956356,8.1623564 3.6047509,8.9726262 2.4,9.7230769 C 4.0853812,10.175798 5.9399804,10.320836 6.8923077,11.692308 C 5.3913781,12.160609 4.0703413,14.713954 4.1846154,17.046154 C 4.2988896,19.378354 4.4947827,21.497988 8.4923077,21.784615 C 9.9184212,21.890015 11.660595,21.676388 12.923077,20.8 L 18.953846,16.553846 L 22.892308,20.430769 C 22.892308,20.430769 23.107693,18.661539 22.523077,17.353846 C 21.915447,15.994673 20.738462,15.323077 20.738462,15.323077 C 21.711856,13.410125 23.662586,11.662698 26.461539,11.384616 C 29.260491,11.106534 30.833176,12.602627 30.707692,15.938462 C 30.829414,17.552533 30.129518,18.814483 29.107692,19.938462 z "
     id="path2161"
     sodipodi:nodetypes="ccczccccccczcccczczcc" />
</svg>
